
<global>
ampeg_attack=0.002
ampeg_release=0.85
</global>

<group>
group_label=RR1
seq_length=8
seq_position=1

<region>
end=23963
hikey=D2
hivel=127
lokey=C2
lovel=0
offset=714
pitch_keycenter=D2
sample=Taylor_Acc_Picked_staccatissimo_D2_RR1.opus
volume=+9.80
</region>

<region>
end=24518
hivel=127
key=D#2
lovel=0
offset=227
sample=Taylor_Acc_Picked_staccatissimo_D#2_RR1.opus
volume=+7.92
</region>

<region>
hivel=127
key=E2
lovel=0
offset=727
sample=Taylor_Acc_Picked_staccatissimo_E2_RR1.opus
volume=+6.33
</region>

<region>
end=24461
hivel=127
key=F2
lovel=0
offset=430
sample=Taylor_Acc_Picked_staccatissimo_F2_RR1.opus
volume=+4.91
</region>

<region>
end=18814
hivel=127
key=F#2
lovel=0
offset=241
sample=Taylor_Acc_Picked_staccatissimo_F#2_RR1.opus
volume=+11.28
</region>

<region>
hivel=127
key=G2
lovel=0
offset=303
sample=Taylor_Acc_Picked_staccatissimo_G2_RR1.opus
volume=+7.48
</region>

<region>
end=22952
hivel=127
key=G#2
lovel=0
offset=152
sample=Taylor_Acc_Picked_staccatissimo_G#2_RR1.opus
volume=+7.03
</region>

<region>
end=23228
hivel=127
key=A2
lovel=0
offset=752
sample=Taylor_Acc_Picked_staccatissimo_A2_RR1.opus
volume=+8.37
</region>

<region>
end=23268
hivel=127
key=A#2
lovel=0
offset=881
sample=Taylor_Acc_Picked_staccatissimo_A#2_RR1.opus
volume=+7.33
</region>

<region>
end=24049
hivel=127
key=B2
lovel=0
offset=713
sample=Taylor_Acc_Picked_staccatissimo_B2_RR1.opus
volume=+6.82
</region>

<region>
end=24586
hivel=127
key=C3
lovel=0
offset=2795
sample=Taylor_Acc_Picked_staccatissimo_C3_RR1.opus
volume=+8.54
</region>

<region>
end=23712
hivel=127
key=C#3
lovel=0
offset=1098
sample=Taylor_Acc_Picked_staccatissimo_C#3_RR1.opus
volume=+6.06
</region>

<region>
end=23424
hivel=127
key=D3
lovel=0
offset=884
sample=Taylor_Acc_Picked_staccatissimo_D3_RR1.opus
volume=+4.86
</region>

<region>
end=23012
hivel=127
key=D#3
lovel=0
offset=108
sample=Taylor_Acc_Picked_staccatissimo_D#3_RR1.opus
volume=+6.91
</region>

<region>
hivel=127
key=E3
lovel=0
offset=-179
sample=Taylor_Acc_Picked_staccatissimo_E3_RR1.opus
volume=+4.11
</region>

<region>
end=20916
hivel=127
key=F3
lovel=0
offset=718
sample=Taylor_Acc_Picked_staccatissimo_F3_RR1.opus
volume=+7.84
</region>

<region>
end=23678
hivel=127
key=F#3
lovel=0
offset=783
sample=Taylor_Acc_Picked_staccatissimo_F#3_RR1.opus
volume=+4.05
</region>

<region>
end=24180
hivel=127
key=G3
lovel=0
offset=803
sample=Taylor_Acc_Picked_staccatissimo_G3_RR1.opus
volume=+6.00
</region>

<region>
end=23782
hivel=127
key=G#3
lovel=0
offset=649
sample=Taylor_Acc_Picked_staccatissimo_G#3_RR1.opus
volume=+8.01
</region>

<region>
end=24134
hivel=127
key=A3
lovel=0
offset=821
sample=Taylor_Acc_Picked_staccatissimo_A3_RR1.opus
volume=+6.26
</region>

<region>
end=22259
hivel=127
key=A#3
lovel=0
offset=793
sample=Taylor_Acc_Picked_staccatissimo_A#3_RR1.opus
volume=+9.72
</region>

<region>
end=24485
hivel=127
key=B3
lovel=0
offset=753
sample=Taylor_Acc_Picked_staccatissimo_B3_RR1.opus
volume=+8.43
</region>

<region>
end=21375
hikey=C4
hivel=127
lokey=C4
lovel=0
offset=810
sample=Taylor_Acc_Picked_staccatissimo_C4_RR1.opus
volume=+7.95
</region>

<region>
hivel=127
key=C#4
lovel=0
offset=3282
sample=Taylor_Acc_Picked_staccatissimo_C#4_RR1.opus
volume=+9.60
</region>

<region>
end=22440
hivel=127
key=D4
lovel=0
offset=970
sample=Taylor_Acc_Picked_staccatissimo_D4_RR1.opus
volume=+13.10
</region>

<region>
end=24018
hivel=127
key=D#4
lovel=0
offset=756
sample=Taylor_Acc_Picked_staccatissimo_D#4_RR1.opus
volume=+12.47
</region>

<region>
hivel=127
key=E4
lovel=0
offset=947
sample=Taylor_Acc_Picked_staccatissimo_E4_RR1.opus
volume=+5.62
</region>

<region>
end=24283
hivel=127
key=F4
lovel=0
offset=844
sample=Taylor_Acc_Picked_staccatissimo_F4_RR1.opus
volume=+7.42
</region>

<region>
end=23973
hivel=127
key=F#4
lovel=0
offset=833
sample=Taylor_Acc_Picked_staccatissimo_F#4_RR1.opus
volume=+3.76
</region>

<region>
end=22985
hivel=127
key=G4
lovel=0
offset=731
sample=Taylor_Acc_Picked_staccatissimo_G4_RR1.opus
volume=+1.38
</region>

<region>
end=22354
hivel=127
key=G#4
lovel=0
offset=1030
sample=Taylor_Acc_Picked_staccatissimo_G#4_RR1.opus
volume=+5.54
</region>

<region>
end=21876
hivel=127
key=A4
lovel=0
offset=874
sample=Taylor_Acc_Picked_staccatissimo_A4_RR1.opus
volume=+7.24
</region>

<region>
end=23109
hivel=127
key=A#4
lovel=0
offset=934
sample=Taylor_Acc_Picked_staccatissimo_A#4_RR1.opus
volume=+8.07
</region>

<region>
end=24111
hivel=127
key=B4
lovel=0
offset=1020
sample=Taylor_Acc_Picked_staccatissimo_B4_RR1.opus
volume=+7.42
</region>

<region>
end=23565
hivel=127
key=C5
lovel=0
offset=974
sample=Taylor_Acc_Picked_staccatissimo_C5_RR1.opus
volume=+10.64
</region>

<region>
end=23961
hivel=127
key=C#5
lovel=0
offset=970
sample=Taylor_Acc_Picked_staccatissimo_C#5_RR1.opus
volume=+6.34
</region>

<region>
end=22688
hivel=127
key=D5
lovel=0
offset=954
sample=Taylor_Acc_Picked_staccatissimo_D5_RR1.opus
volume=+6.68
</region>

<region>
end=21502
hivel=127
key=D#5
lovel=0
offset=-433
sample=Taylor_Acc_Picked_staccatissimo_D#5_RR1.opus
volume=+3.95
</region>

<region>
end=22440
hivel=127
key=E5
lovel=0
offset=10
sample=Taylor_Acc_Picked_staccatissimo_E5_RR1.opus
volume=+5.14
</region>

<region>
end=20450
hivel=127
key=F5
lovel=0
offset=-448
sample=Taylor_Acc_Picked_staccatissimo_F5_RR1.opus
volume=+1.81
</region>

<region>
end=21101
hivel=127
key=F#5
lovel=0
offset=138
sample=Taylor_Acc_Picked_staccatissimo_F#5_RR1.opus
volume=+2.18
</region>

<region>
end=21300
hivel=127
key=G5
lovel=0
offset=-175
sample=Taylor_Acc_Picked_staccatissimo_G5_RR1.opus
volume=+4.06
</region>

<region>
end=24025
hivel=127
key=G#5
lovel=0
offset=1136
sample=Taylor_Acc_Picked_staccatissimo_G#5_RR1.opus
volume=+4.87
</region>

<region>
end=23744
hikey=C6
hivel=127
lokey=A5
lovel=0
offset=749
pitch_keycenter=A5
sample=Taylor_Acc_Picked_staccatissimo_A5_RR1.opus
volume=+9.10
</region>
</group>

<group>
group_label=RR2
seq_length=8
seq_position=2

<region>
end=34247
hikey=D2
hivel=127
lokey=C2
lovel=0
offset=11827
pitch_keycenter=D2
sample=Taylor_Acc_Picked_staccatissimo_D2_RR2.opus
volume=+9.18
</region>

<region>
end=35184
hivel=127
key=D#2
lovel=0
offset=11982
sample=Taylor_Acc_Picked_staccatissimo_D#2_RR2.opus
volume=+10.64
</region>

<region>
end=37624
hivel=127
key=E2
lovel=0
offset=14582
sample=Taylor_Acc_Picked_staccatissimo_E2_RR2.opus
volume=+7.48
</region>

<region>
end=36507
hivel=127
key=F2
lovel=0
offset=13410
sample=Taylor_Acc_Picked_staccatissimo_F2_RR2.opus
volume=+5.62
</region>

<region>
hivel=127
key=F#2
lovel=0
offset=14426
sample=Taylor_Acc_Picked_staccatissimo_F#2_RR2.opus
volume=+7.41
</region>

<region>
hivel=127
key=G2
lovel=0
offset=14259
sample=Taylor_Acc_Picked_staccatissimo_G2_RR2.opus
volume=+7.31
</region>

<region>
end=32309
hivel=127
key=G#2
lovel=0
offset=10697
sample=Taylor_Acc_Picked_staccatissimo_G#2_RR2.opus
volume=+5.37
</region>

<region>
end=35307
hivel=127
key=A2
lovel=0
offset=12175
sample=Taylor_Acc_Picked_staccatissimo_A2_RR2.opus
volume=+9.58
</region>

<region>
end=37258
hivel=127
key=A#2
lovel=0
offset=13313
sample=Taylor_Acc_Picked_staccatissimo_A#2_RR2.opus
volume=+7.02
</region>

<region>
end=35148
hivel=127
key=B2
lovel=0
offset=12556
sample=Taylor_Acc_Picked_staccatissimo_B2_RR2.opus
volume=+10.26
</region>

<region>
end=33969
hivel=127
key=C3
lovel=0
offset=12347
sample=Taylor_Acc_Picked_staccatissimo_C3_RR2.opus
volume=+8.82
</region>

<region>
end=34324
hivel=127
key=C#3
lovel=0
offset=13391
sample=Taylor_Acc_Picked_staccatissimo_C#3_RR2.opus
volume=+6.72
</region>

<region>
end=33841
hivel=127
key=D3
lovel=0
offset=11907
sample=Taylor_Acc_Picked_staccatissimo_D3_RR2.opus
volume=+5.09
</region>

<region>
end=36965
hivel=127
key=D#3
lovel=0
offset=14033
sample=Taylor_Acc_Picked_staccatissimo_D#3_RR2.opus
volume=+5.76
</region>

<region>
hivel=127
key=E3
lovel=0
offset=15606
sample=Taylor_Acc_Picked_staccatissimo_E3_RR2.opus
volume=+3.95
</region>

<region>
end=34488
hivel=127
key=F3
lovel=0
offset=12643
sample=Taylor_Acc_Picked_staccatissimo_F3_RR2.opus
volume=+5.94
</region>

<region>
end=34959
hivel=127
key=F#3
lovel=0
offset=13886
sample=Taylor_Acc_Picked_staccatissimo_F#3_RR2.opus
volume=+4.68
</region>

<region>
end=34260
hivel=127
key=G3
lovel=0
offset=12289
sample=Taylor_Acc_Picked_staccatissimo_G3_RR2.opus
volume=+6.57
</region>

<region>
end=34614
hivel=127
key=G#3
lovel=0
offset=11977
sample=Taylor_Acc_Picked_staccatissimo_G#3_RR2.opus
volume=+6.35
</region>

<region>
end=34331
hivel=127
key=A3
lovel=0
offset=12720
sample=Taylor_Acc_Picked_staccatissimo_A3_RR2.opus
volume=+5.16
</region>

<region>
hivel=127
key=A#3
lovel=0
offset=13582
sample=Taylor_Acc_Picked_staccatissimo_A#3_RR2.opus
volume=+6.12
</region>

<region>
end=36448
hivel=127
key=B3
lovel=0
offset=13709
sample=Taylor_Acc_Picked_staccatissimo_B3_RR2.opus
volume=+7.21
</region>

<region>
end=33581
hikey=C4
hivel=127
lokey=C4
lovel=0
offset=12860
sample=Taylor_Acc_Picked_staccatissimo_C4_RR2.opus
volume=+8.49
</region>

<region>
hivel=127
key=C#4
lovel=0
offset=14664
sample=Taylor_Acc_Picked_staccatissimo_C#4_RR2.opus
volume=+10.15
</region>

<region>
end=33848
hivel=127
key=D4
lovel=0
offset=13073
sample=Taylor_Acc_Picked_staccatissimo_D4_RR2.opus
volume=+10.59
</region>

<region>
end=32467
hivel=127
key=D#4
lovel=0
offset=13725
sample=Taylor_Acc_Picked_staccatissimo_D#4_RR2.opus
volume=+12.88
</region>

<region>
end=36203
hivel=127
key=E4
lovel=0
offset=14534
sample=Taylor_Acc_Picked_staccatissimo_E4_RR2.opus
volume=+6.38
</region>

<region>
end=35259
hivel=127
key=F4
lovel=0
offset=13378
sample=Taylor_Acc_Picked_staccatissimo_F4_RR2.opus
volume=+7.89
</region>

<region>
end=33286
hivel=127
key=F#4
lovel=0
offset=12901
sample=Taylor_Acc_Picked_staccatissimo_F#4_RR2.opus
volume=+5.08
</region>

<region>
end=32862
hivel=127
key=G4
lovel=0
offset=12832
sample=Taylor_Acc_Picked_staccatissimo_G4_RR2.opus
volume=+2.42
</region>

<region>
end=35299
hivel=127
key=G#4
lovel=0
offset=13833
sample=Taylor_Acc_Picked_staccatissimo_G#4_RR2.opus
volume=+5.72
</region>

<region>
end=32153
hivel=127
key=A4
lovel=0
offset=11674
sample=Taylor_Acc_Picked_staccatissimo_A4_RR2.opus
volume=+4.99
</region>

<region>
end=32525
hivel=127
key=A#4
lovel=0
offset=11565
sample=Taylor_Acc_Picked_staccatissimo_A#4_RR2.opus
volume=+9.65
</region>

<region>
end=33001
hivel=127
key=B4
lovel=0
offset=12877
sample=Taylor_Acc_Picked_staccatissimo_B4_RR2.opus
volume=+8.08
</region>

<region>
end=34050
hivel=127
key=C5
lovel=0
offset=12572
sample=Taylor_Acc_Picked_staccatissimo_C5_RR2.opus
volume=+6.24
</region>

<region>
end=34024
hivel=127
key=C#5
lovel=0
offset=12809
sample=Taylor_Acc_Picked_staccatissimo_C#5_RR2.opus
volume=+3.92
</region>

<region>
end=33592
hivel=127
key=D5
lovel=0
offset=12194
sample=Taylor_Acc_Picked_staccatissimo_D5_RR2.opus
volume=+6.07
</region>

<region>
end=33356
hivel=127
key=D#5
lovel=0
offset=12613
sample=Taylor_Acc_Picked_staccatissimo_D#5_RR2.opus
volume=+4.84
</region>

<region>
end=33339
hivel=127
key=E5
lovel=0
offset=12929
sample=Taylor_Acc_Picked_staccatissimo_E5_RR2.opus
volume=+3.77
</region>

<region>
hivel=127
key=F5
lovel=0
offset=14008
sample=Taylor_Acc_Picked_staccatissimo_F5_RR2.opus
volume=+0.81
</region>

<region>
end=29244
hivel=127
key=F#5
lovel=0
offset=10332
sample=Taylor_Acc_Picked_staccatissimo_F#5_RR2.opus
volume=+2.64
</region>

<region>
end=31522
hivel=127
key=G5
lovel=0
offset=12359
sample=Taylor_Acc_Picked_staccatissimo_G5_RR2.opus
volume=+5.06
</region>

<region>
end=33170
hivel=127
key=G#5
lovel=0
offset=12508
sample=Taylor_Acc_Picked_staccatissimo_G#5_RR2.opus
volume=+8.65
</region>

<region>
end=32310
hikey=C6
hivel=127
lokey=A5
lovel=0
offset=13033
pitch_keycenter=A5
sample=Taylor_Acc_Picked_staccatissimo_A5_RR2.opus
volume=+8.96
</region>
</group>

<group>
group_label=RR3
seq_length=8
seq_position=3

<region>
end=34516
hikey=D2
hivel=127
lokey=C2
lovel=0
offset=11520
pitch_keycenter=D2
sample=Taylor_Acc_Picked_staccatissimo_D2_RR3.opus
volume=+7.84
</region>

<region>
end=33612
hivel=127
key=D#2
lovel=0
offset=11771
sample=Taylor_Acc_Picked_staccatissimo_D#2_RR3.opus
volume=+10.43
</region>

<region>
end=36258
hivel=127
key=E2
lovel=0
offset=13668
sample=Taylor_Acc_Picked_staccatissimo_E2_RR3.opus
volume=+5.24
</region>

<region>
end=35536
hivel=127
key=F2
lovel=0
offset=12717
sample=Taylor_Acc_Picked_staccatissimo_F2_RR3.opus
volume=+7.49
</region>

<region>
hivel=127
key=F#2
lovel=0
offset=14333
sample=Taylor_Acc_Picked_staccatissimo_F#2_RR3.opus
volume=+6.27
</region>

<region>
end=35819
hivel=127
key=G2
lovel=0
offset=14564
sample=Taylor_Acc_Picked_staccatissimo_G2_RR3.opus
volume=+8.61
</region>

<region>
end=31611
hivel=127
key=G#2
lovel=0
offset=9903
sample=Taylor_Acc_Picked_staccatissimo_G#2_RR3.opus
volume=+5.25
</region>

<region>
end=35439
hivel=127
key=A2
lovel=0
offset=12462
sample=Taylor_Acc_Picked_staccatissimo_A2_RR3.opus
volume=+12.01
</region>

<region>
end=36517
hivel=127
key=A#2
lovel=0
offset=13419
sample=Taylor_Acc_Picked_staccatissimo_A#2_RR3.opus
volume=+6.95
</region>

<region>
end=34120
hivel=127
key=B2
lovel=0
offset=12127
sample=Taylor_Acc_Picked_staccatissimo_B2_RR3.opus
volume=+10.55
</region>

<region>
end=33387
hivel=127
key=C3
lovel=0
offset=10972
sample=Taylor_Acc_Picked_staccatissimo_C3_RR3.opus
volume=+9.12
</region>

<region>
end=33612
hivel=127
key=C#3
lovel=0
offset=13264
sample=Taylor_Acc_Picked_staccatissimo_C#3_RR3.opus
volume=+7.56
</region>

<region>
end=34487
hivel=127
key=D3
lovel=0
offset=11046
sample=Taylor_Acc_Picked_staccatissimo_D3_RR3.opus
volume=+5.39
</region>

<region>
end=36027
hivel=127
key=D#3
lovel=0
offset=13505
sample=Taylor_Acc_Picked_staccatissimo_D#3_RR3.opus
volume=+5.93
</region>

<region>
hivel=127
key=E3
lovel=0
offset=15625
sample=Taylor_Acc_Picked_staccatissimo_E3_RR3.opus
volume=+5.46
</region>

<region>
end=32433
hivel=127
key=F3
lovel=0
offset=11675
sample=Taylor_Acc_Picked_staccatissimo_F3_RR3.opus
volume=+5.66
</region>

<region>
end=35196
hivel=127
key=F#3
lovel=0
offset=13400
sample=Taylor_Acc_Picked_staccatissimo_F#3_RR3.opus
volume=+3.61
</region>

<region>
end=33504
hivel=127
key=G3
lovel=0
offset=12211
sample=Taylor_Acc_Picked_staccatissimo_G3_RR3.opus
volume=+6.21
</region>

<region>
end=33620
hivel=127
key=G#3
lovel=0
offset=11790
sample=Taylor_Acc_Picked_staccatissimo_G#3_RR3.opus
volume=+8.70
</region>

<region>
end=33150
hivel=127
key=A3
lovel=0
offset=12809
sample=Taylor_Acc_Picked_staccatissimo_A3_RR3.opus
volume=+5.31
</region>

<region>
end=33391
hivel=127
key=A#3
lovel=0
offset=13491
sample=Taylor_Acc_Picked_staccatissimo_A#3_RR3.opus
volume=+6.61
</region>

<region>
end=33319
hivel=127
key=B3
lovel=0
offset=12729
sample=Taylor_Acc_Picked_staccatissimo_B3_RR3.opus
volume=+8.20
</region>

<region>
end=33486
hikey=C4
hivel=127
lokey=C4
lovel=0
offset=13155
sample=Taylor_Acc_Picked_staccatissimo_C4_RR3.opus
volume=+9.54
</region>

<region>
end=34254
hivel=127
key=C#4
lovel=0
offset=14406
sample=Taylor_Acc_Picked_staccatissimo_C#4_RR3.opus
volume=+11.43
</region>

<region>
end=33348
hivel=127
key=D4
lovel=0
offset=13107
sample=Taylor_Acc_Picked_staccatissimo_D4_RR3.opus
volume=+12.22
</region>

<region>
end=31739
hivel=127
key=D#4
lovel=0
offset=13690
sample=Taylor_Acc_Picked_staccatissimo_D#4_RR3.opus
volume=+10.51
</region>

<region>
end=35482
hivel=127
key=E4
lovel=0
offset=13111
sample=Taylor_Acc_Picked_staccatissimo_E4_RR3.opus
volume=+7.02
</region>

<region>
end=33687
hivel=127
key=F4
lovel=0
offset=14245
sample=Taylor_Acc_Picked_staccatissimo_F4_RR3.opus
volume=+8.68
</region>

<region>
end=34878
hivel=127
key=F#4
lovel=0
offset=12814
sample=Taylor_Acc_Picked_staccatissimo_F#4_RR3.opus
volume=+4.73
</region>

<region>
end=33705
hivel=127
key=G4
lovel=0
offset=12150
sample=Taylor_Acc_Picked_staccatissimo_G4_RR3.opus
volume=+2.16
</region>

<region>
end=35736
hivel=127
key=G#4
lovel=0
offset=13845
sample=Taylor_Acc_Picked_staccatissimo_G#4_RR3.opus
volume=+6.01
</region>

<region>
end=32187
hivel=127
key=A4
lovel=0
offset=10943
sample=Taylor_Acc_Picked_staccatissimo_A4_RR3.opus
volume=+7.03
</region>

<region>
end=33616
hivel=127
key=A#4
lovel=0
offset=11690
sample=Taylor_Acc_Picked_staccatissimo_A#4_RR3.opus
volume=+8.72
</region>

<region>
end=33832
hivel=127
key=B4
lovel=0
offset=12673
sample=Taylor_Acc_Picked_staccatissimo_B4_RR3.opus
volume=+8.93
</region>

<region>
end=33987
hivel=127
key=C5
lovel=0
offset=12790
sample=Taylor_Acc_Picked_staccatissimo_C5_RR3.opus
volume=+5.79
</region>

<region>
end=34609
hivel=127
key=C#5
lovel=0
offset=12563
sample=Taylor_Acc_Picked_staccatissimo_C#5_RR3.opus
volume=+7.89
</region>

<region>
end=32346
hivel=127
key=D5
lovel=0
offset=10891
sample=Taylor_Acc_Picked_staccatissimo_D5_RR3.opus
volume=+6.13
</region>

<region>
end=33552
hivel=127
key=D#5
lovel=0
offset=12059
sample=Taylor_Acc_Picked_staccatissimo_D#5_RR3.opus
volume=+4.43
</region>

<region>
end=33104
hivel=127
key=E5
lovel=0
offset=11904
sample=Taylor_Acc_Picked_staccatissimo_E5_RR3.opus
volume=+4.25
</region>

<region>
hivel=127
key=F5
lovel=0
offset=13993
sample=Taylor_Acc_Picked_staccatissimo_F5_RR3.opus
volume=+0.10
</region>

<region>
end=20979
hivel=127
key=F#5
lovel=0
offset=76
sample=Taylor_Acc_Picked_staccatissimo_F#5_RR3.opus
volume=+3.51
</region>

<region>
end=32918
hivel=127
key=G5
lovel=0
offset=12342
sample=Taylor_Acc_Picked_staccatissimo_G5_RR3.opus
volume=+6.32
</region>

<region>
end=32525
hivel=127
key=G#5
lovel=0
offset=11787
sample=Taylor_Acc_Picked_staccatissimo_G#5_RR3.opus
volume=+7.23
</region>

<region>
end=32076
hikey=C6
hivel=127
lokey=A5
lovel=0
offset=12759
pitch_keycenter=A5
sample=Taylor_Acc_Picked_staccatissimo_A5_RR3.opus
volume=+7.41
</region>
</group>

<group>
group_label=RR4
seq_length=8
seq_position=4

<region>
end=29986
hikey=D2
hivel=127
lokey=C2
lovel=0
offset=10826
pitch_keycenter=D2
sample=Taylor_Acc_Picked_staccatissimo_D2_RR4.opus
volume=+7.26
</region>

<region>
end=33902
hivel=127
key=D#2
lovel=0
offset=10994
sample=Taylor_Acc_Picked_staccatissimo_D#2_RR4.opus
volume=+9.45
</region>

<region>
end=34369
hivel=127
key=E2
lovel=0
offset=12401
sample=Taylor_Acc_Picked_staccatissimo_E2_RR4.opus
volume=+7.19
</region>

<region>
end=34762
hivel=127
key=F2
lovel=0
offset=12044
sample=Taylor_Acc_Picked_staccatissimo_F2_RR4.opus
volume=+6.10
</region>

<region>
hivel=127
key=F#2
lovel=0
offset=14167
sample=Taylor_Acc_Picked_staccatissimo_F#2_RR4.opus
volume=+6.70
</region>

<region>
end=34734
hivel=127
key=G2
lovel=0
offset=13398
sample=Taylor_Acc_Picked_staccatissimo_G2_RR4.opus
volume=+6.39
</region>

<region>
end=31028
hivel=127
key=G#2
lovel=0
offset=9443
sample=Taylor_Acc_Picked_staccatissimo_G#2_RR4.opus
volume=+5.33
</region>

<region>
end=30200
hivel=127
key=A2
lovel=0
offset=11810
sample=Taylor_Acc_Picked_staccatissimo_A2_RR4.opus
volume=+7.79
</region>

<region>
end=37723
hivel=127
key=A#2
lovel=0
offset=12805
sample=Taylor_Acc_Picked_staccatissimo_A#2_RR4.opus
volume=+7.35
</region>

<region>
end=31725
hivel=127
key=B2
lovel=0
offset=12288
sample=Taylor_Acc_Picked_staccatissimo_B2_RR4.opus
volume=+11.08
</region>

<region>
end=30679
hivel=127
key=C3
lovel=0
offset=10616
sample=Taylor_Acc_Picked_staccatissimo_C3_RR4.opus
volume=+9.51
</region>

<region>
end=32826
hivel=127
key=C#3
lovel=0
offset=12684
sample=Taylor_Acc_Picked_staccatissimo_C#3_RR4.opus
volume=+6.62
</region>

<region>
end=30251
hivel=127
key=D3
lovel=0
offset=11590
sample=Taylor_Acc_Picked_staccatissimo_D3_RR4.opus
volume=+4.99
</region>

<region>
end=34409
hivel=127
key=D#3
lovel=0
offset=13115
sample=Taylor_Acc_Picked_staccatissimo_D#3_RR4.opus
volume=+6.49
</region>

<region>
hivel=127
key=E3
lovel=0
offset=15476
sample=Taylor_Acc_Picked_staccatissimo_E3_RR4.opus
volume=+4.38
</region>

<region>
end=30237
hivel=127
key=F3
lovel=0
offset=11776
sample=Taylor_Acc_Picked_staccatissimo_F3_RR4.opus
volume=+4.83
</region>

<region>
end=32652
hivel=127
key=F#3
lovel=0
offset=13172
sample=Taylor_Acc_Picked_staccatissimo_F#3_RR4.opus
volume=+4.41
</region>

<region>
end=31918
hivel=127
key=G3
lovel=0
offset=12253
sample=Taylor_Acc_Picked_staccatissimo_G3_RR4.opus
volume=+5.27
</region>

<region>
end=31146
hivel=127
key=G#3
lovel=0
offset=11154
sample=Taylor_Acc_Picked_staccatissimo_G#3_RR4.opus
volume=+9.56
</region>

<region>
end=30711
hivel=127
key=A3
lovel=0
offset=12447
sample=Taylor_Acc_Picked_staccatissimo_A3_RR4.opus
volume=+6.85
</region>

<region>
end=33230
hivel=127
key=A#3
lovel=0
offset=13624
sample=Taylor_Acc_Picked_staccatissimo_A#3_RR4.opus
volume=+11.19
</region>

<region>
end=33622
hivel=127
key=B3
lovel=0
offset=13179
sample=Taylor_Acc_Picked_staccatissimo_B3_RR4.opus
volume=+7.04
</region>

<region>
end=33179
hikey=C4
hivel=127
lokey=C4
lovel=0
offset=13023
sample=Taylor_Acc_Picked_staccatissimo_C4_RR4.opus
volume=+7.57
</region>

<region>
end=32547
hivel=127
key=C#4
lovel=0
offset=13265
sample=Taylor_Acc_Picked_staccatissimo_C#4_RR4.opus
volume=+10.58
</region>

<region>
hivel=127
key=D4
lovel=0
offset=13692
sample=Taylor_Acc_Picked_staccatissimo_D4_RR4.opus
volume=+9.81
</region>

<region>
end=31932
hivel=127
key=D#4
lovel=0
offset=13477
sample=Taylor_Acc_Picked_staccatissimo_D#4_RR4.opus
volume=+10.46
</region>

<region>
hivel=127
key=E4
lovel=0
offset=13959
sample=Taylor_Acc_Picked_staccatissimo_E4_RR4.opus
volume=+7.40
</region>

<region>
end=35259
hivel=127
key=F4
lovel=0
offset=14077
sample=Taylor_Acc_Picked_staccatissimo_F4_RR4.opus
volume=+9.36
</region>

<region>
end=31457
hivel=127
key=F#4
lovel=0
offset=12857
sample=Taylor_Acc_Picked_staccatissimo_F#4_RR4.opus
volume=+2.60
</region>

<region>
end=30802
hivel=127
key=G4
lovel=0
offset=11498
sample=Taylor_Acc_Picked_staccatissimo_G4_RR4.opus
volume=+0.39
</region>

<region>
hivel=127
key=G#4
lovel=0
offset=14057
sample=Taylor_Acc_Picked_staccatissimo_G#4_RR4.opus
volume=+5.35
</region>

<region>
end=28719
hivel=127
key=A4
lovel=0
offset=11353
sample=Taylor_Acc_Picked_staccatissimo_A4_RR4.opus
volume=+8.37
</region>

<region>
end=27527
hivel=127
key=A#4
lovel=0
offset=11326
sample=Taylor_Acc_Picked_staccatissimo_A#4_RR4.opus
volume=+8.60
</region>

<region>
end=30819
hivel=127
key=B4
lovel=0
offset=12538
sample=Taylor_Acc_Picked_staccatissimo_B4_RR4.opus
volume=+11.39
</region>

<region>
end=30650
hivel=127
key=C5
lovel=0
offset=12844
sample=Taylor_Acc_Picked_staccatissimo_C5_RR4.opus
volume=+7.24
</region>

<region>
end=30818
hivel=127
key=C#5
lovel=0
offset=13079
sample=Taylor_Acc_Picked_staccatissimo_C#5_RR4.opus
volume=+7.21
</region>

<region>
end=19647
hivel=127
key=D5
lovel=0
offset=-174
sample=Taylor_Acc_Picked_staccatissimo_D5_RR4.opus
volume=+5.92
</region>

<region>
end=30247
hivel=127
key=D#5
lovel=0
offset=11302
sample=Taylor_Acc_Picked_staccatissimo_D#5_RR4.opus
volume=+3.87
</region>

<region>
end=28551
hivel=127
key=E5
lovel=0
offset=12090
sample=Taylor_Acc_Picked_staccatissimo_E5_RR4.opus
volume=+3.18
</region>

<region>
end=32510
hivel=127
key=F5
lovel=0
offset=13037
sample=Taylor_Acc_Picked_staccatissimo_F5_RR4.opus
volume=+0.88
</region>

<region>
end=20310
hivel=127
key=F#5
lovel=0
offset=-10
sample=Taylor_Acc_Picked_staccatissimo_F#5_RR4.opus
volume=+1.21
</region>

<region>
end=30433
hivel=127
key=G5
lovel=0
offset=11581
sample=Taylor_Acc_Picked_staccatissimo_G5_RR4.opus
volume=+4.86
</region>

<region>
end=30427
hivel=127
key=G#5
lovel=0
offset=11249
sample=Taylor_Acc_Picked_staccatissimo_G#5_RR4.opus
volume=+6.62
</region>

<region>
end=30983
hikey=C6
hivel=127
lokey=A5
lovel=0
offset=12140
pitch_keycenter=A5
sample=Taylor_Acc_Picked_staccatissimo_A5_RR4.opus
volume=+7.53
</region>
</group>

<group>
group_label=RR5
seq_length=8
seq_position=5

<region>
end=30969
hikey=D2
hivel=127
lokey=C2
lovel=0
offset=11242
pitch_keycenter=D2
sample=Taylor_Acc_Picked_staccatissimo_D2_RR5.opus
volume=+7.71
</region>

<region>
end=34674
hivel=127
key=D#2
lovel=0
offset=11712
sample=Taylor_Acc_Picked_staccatissimo_D#2_RR5.opus
volume=+9.15
</region>

<region>
end=35335
hivel=127
key=E2
lovel=0
offset=12074
sample=Taylor_Acc_Picked_staccatissimo_E2_RR5.opus
volume=+5.54
</region>

<region>
end=34562
hivel=127
key=F2
lovel=0
offset=12060
sample=Taylor_Acc_Picked_staccatissimo_F2_RR5.opus
volume=+4.31
</region>

<region>
end=35088
hivel=127
key=F#2
lovel=0
offset=14311
sample=Taylor_Acc_Picked_staccatissimo_F#2_RR5.opus
volume=+10.26
</region>

<region>
end=34503
hivel=127
key=G2
lovel=0
offset=12282
sample=Taylor_Acc_Picked_staccatissimo_G2_RR5.opus
volume=+5.31
</region>

<region>
end=30788
hivel=127
key=G#2
lovel=0
offset=9407
sample=Taylor_Acc_Picked_staccatissimo_G#2_RR5.opus
volume=+4.58
</region>

<region>
end=33179
hivel=127
key=A2
lovel=0
offset=11067
sample=Taylor_Acc_Picked_staccatissimo_A2_RR5.opus
volume=+8.75
</region>

<region>
end=37051
hivel=127
key=A#2
lovel=0
offset=13637
sample=Taylor_Acc_Picked_staccatissimo_A#2_RR5.opus
volume=+6.26
</region>

<region>
end=33890
hivel=127
key=B2
lovel=0
offset=12390
sample=Taylor_Acc_Picked_staccatissimo_B2_RR5.opus
volume=+11.26
</region>

<region>
end=32500
hivel=127
key=C3
lovel=0
offset=11129
sample=Taylor_Acc_Picked_staccatissimo_C3_RR5.opus
volume=+9.16
</region>

<region>
end=34072
hivel=127
key=C#3
lovel=0
offset=13052
sample=Taylor_Acc_Picked_staccatissimo_C#3_RR5.opus
volume=+7.70
</region>

<region>
end=33106
hivel=127
key=D3
lovel=0
offset=12448
sample=Taylor_Acc_Picked_staccatissimo_D3_RR5.opus
volume=+7.17
</region>

<region>
hivel=127
key=D#3
lovel=0
offset=13009
sample=Taylor_Acc_Picked_staccatissimo_D#3_RR5.opus
volume=+5.49
</region>

<region>
hivel=127
key=E3
lovel=0
offset=15586
sample=Taylor_Acc_Picked_staccatissimo_E3_RR5.opus
volume=+4.84
</region>

<region>
end=33299
hivel=127
key=F3
lovel=0
offset=12680
sample=Taylor_Acc_Picked_staccatissimo_F3_RR5.opus
volume=+6.91
</region>

<region>
end=33552
hivel=127
key=F#3
lovel=0
offset=13017
sample=Taylor_Acc_Picked_staccatissimo_F#3_RR5.opus
volume=+3.81
</region>

<region>
end=30936
hivel=127
key=G3
lovel=0
offset=12032
sample=Taylor_Acc_Picked_staccatissimo_G3_RR5.opus
volume=+6.28
</region>

<region>
end=33746
hivel=127
key=G#3
lovel=0
offset=11706
sample=Taylor_Acc_Picked_staccatissimo_G#3_RR5.opus
volume=+7.09
</region>

<region>
end=32632
hivel=127
key=A3
lovel=0
offset=13168
sample=Taylor_Acc_Picked_staccatissimo_A3_RR5.opus
volume=+3.20
</region>

<region>
end=32532
hivel=127
key=A#3
lovel=0
offset=13651
sample=Taylor_Acc_Picked_staccatissimo_A#3_RR5.opus
volume=+8.62
</region>

<region>
end=35958
hivel=127
key=B3
lovel=0
offset=12944
sample=Taylor_Acc_Picked_staccatissimo_B3_RR5.opus
volume=+7.47
</region>

<region>
end=35863
hikey=C4
hivel=127
lokey=C4
lovel=0
offset=13371
sample=Taylor_Acc_Picked_staccatissimo_C4_RR5.opus
volume=+8.74
</region>

<region>
end=33405
hivel=127
key=C#4
lovel=0
offset=13695
sample=Taylor_Acc_Picked_staccatissimo_C#4_RR5.opus
volume=+9.18
</region>

<region>
hivel=127
key=D4
lovel=0
offset=14313
sample=Taylor_Acc_Picked_staccatissimo_D4_RR5.opus
volume=+11.96
</region>

<region>
end=35425
hivel=127
key=D#4
lovel=0
offset=13764
sample=Taylor_Acc_Picked_staccatissimo_D#4_RR5.opus
volume=+16.22
</region>

<region>
end=35739
hivel=127
key=E4
lovel=0
offset=14358
sample=Taylor_Acc_Picked_staccatissimo_E4_RR5.opus
volume=+7.00
</region>

<region>
hivel=127
key=F4
lovel=0
offset=13357
sample=Taylor_Acc_Picked_staccatissimo_F4_RR5.opus
volume=+6.52
</region>

<region>
end=34878
hivel=127
key=F#4
lovel=0
offset=12393
sample=Taylor_Acc_Picked_staccatissimo_F#4_RR5.opus
volume=+2.94
</region>

<region>
end=31438
hivel=127
key=G4
lovel=0
offset=11594
sample=Taylor_Acc_Picked_staccatissimo_G4_RR5.opus
volume=+2.06
</region>

<region>
hivel=127
key=G#4
lovel=0
offset=14636
sample=Taylor_Acc_Picked_staccatissimo_G#4_RR5.opus
volume=+5.68
</region>

<region>
end=32921
hivel=127
key=A4
lovel=0
offset=11402
sample=Taylor_Acc_Picked_staccatissimo_A4_RR5.opus
volume=+7.33
</region>

<region>
end=21352
hivel=127
key=A#4
lovel=0
offset=680
sample=Taylor_Acc_Picked_staccatissimo_A#4_RR5.opus
volume=+7.31
</region>

<region>
end=32654
hivel=127
key=B4
lovel=0
offset=12302
sample=Taylor_Acc_Picked_staccatissimo_B4_RR5.opus
volume=+10.09
</region>

<region>
end=31707
hivel=127
key=C5
lovel=0
offset=12284
sample=Taylor_Acc_Picked_staccatissimo_C5_RR5.opus
volume=+4.66
</region>

<region>
end=31947
hivel=127
key=C#5
lovel=0
offset=11854
sample=Taylor_Acc_Picked_staccatissimo_C#5_RR5.opus
volume=+7.31
</region>

<region>
end=18359
hivel=127
key=D5
lovel=0
offset=-22
sample=Taylor_Acc_Picked_staccatissimo_D5_RR5.opus
volume=+5.55
</region>

<region>
end=31550
hivel=127
key=D#5
lovel=0
offset=11831
sample=Taylor_Acc_Picked_staccatissimo_D#5_RR5.opus
volume=+6.03
</region>

<region>
end=31861
hivel=127
key=E5
lovel=0
offset=11938
sample=Taylor_Acc_Picked_staccatissimo_E5_RR5.opus
volume=+4.09
</region>

<region>
end=31253
hivel=127
key=F5
lovel=0
offset=12788
sample=Taylor_Acc_Picked_staccatissimo_F5_RR5.opus
volume=+2.74
</region>

<region>
end=18203
hivel=127
key=F#5
lovel=0
offset=-73
sample=Taylor_Acc_Picked_staccatissimo_F#5_RR5.opus
volume=+1.37
</region>

<region>
end=30155
hivel=127
key=G5
lovel=0
offset=11235
sample=Taylor_Acc_Picked_staccatissimo_G5_RR5.opus
volume=+3.80
</region>

<region>
end=28813
hivel=127
key=G#5
lovel=0
offset=10783
sample=Taylor_Acc_Picked_staccatissimo_G#5_RR5.opus
volume=+6.94
</region>

<region>
end=31214
hikey=C6
hivel=127
lokey=A5
lovel=0
offset=11494
pitch_keycenter=A5
sample=Taylor_Acc_Picked_staccatissimo_A5_RR5.opus
volume=+8.10
</region>
</group>

<group>
group_label=RR6
seq_length=8
seq_position=6

<region>
end=32049
hikey=D2
hivel=127
lokey=C2
lovel=0
offset=10542
pitch_keycenter=D2
sample=Taylor_Acc_Picked_staccatissimo_D2_RR6.opus
volume=+8.77
</region>

<region>
end=34513
hivel=127
key=D#2
lovel=0
offset=12299
sample=Taylor_Acc_Picked_staccatissimo_D#2_RR6.opus
volume=+11.21
</region>

<region>
end=33178
hivel=127
key=E2
lovel=0
offset=12729
sample=Taylor_Acc_Picked_staccatissimo_E2_RR6.opus
volume=+4.37
</region>

<region>
end=34057
hivel=127
key=F2
lovel=0
offset=11485
sample=Taylor_Acc_Picked_staccatissimo_F2_RR6.opus
volume=+4.20
</region>

<region>
end=35293
hivel=127
key=F#2
lovel=0
offset=13581
sample=Taylor_Acc_Picked_staccatissimo_F#2_RR6.opus
volume=+7.40
</region>

<region>
end=34286
hivel=127
key=G2
lovel=0
offset=12423
sample=Taylor_Acc_Picked_staccatissimo_G2_RR6.opus
volume=+8.70
</region>

<region>
end=22301
hivel=127
key=G#2
lovel=0
offset=643
sample=Taylor_Acc_Picked_staccatissimo_G#2_RR6.opus
volume=+4.48
</region>

<region>
end=32682
hivel=127
key=A2
lovel=0
offset=11151
sample=Taylor_Acc_Picked_staccatissimo_A2_RR6.opus
volume=+6.99
</region>

<region>
hivel=127
key=A#2
lovel=0
offset=13650
sample=Taylor_Acc_Picked_staccatissimo_A#2_RR6.opus
volume=+6.85
</region>

<region>
end=33521
hivel=127
key=B2
lovel=0
offset=12458
sample=Taylor_Acc_Picked_staccatissimo_B2_RR6.opus
volume=+9.94
</region>

<region>
end=29609
hivel=127
key=C3
lovel=0
offset=10867
sample=Taylor_Acc_Picked_staccatissimo_C3_RR6.opus
volume=+9.70
</region>

<region>
end=35940
hivel=127
key=C#3
lovel=0
offset=13201
sample=Taylor_Acc_Picked_staccatissimo_C#3_RR6.opus
volume=+7.72
</region>

<region>
end=34485
hivel=127
key=D3
lovel=0
offset=11830
sample=Taylor_Acc_Picked_staccatissimo_D3_RR6.opus
volume=+7.26
</region>

<region>
end=35848
hivel=127
key=D#3
lovel=0
offset=13726
sample=Taylor_Acc_Picked_staccatissimo_D#3_RR6.opus
volume=+8.00
</region>

<region>
hivel=127
key=E3
lovel=0
offset=15121
sample=Taylor_Acc_Picked_staccatissimo_E3_RR6.opus
volume=+7.07
</region>

<region>
end=32307
hivel=127
key=F3
lovel=0
offset=11779
sample=Taylor_Acc_Picked_staccatissimo_F3_RR6.opus
volume=+4.17
</region>

<region>
end=35350
hivel=127
key=F#3
lovel=0
offset=12813
sample=Taylor_Acc_Picked_staccatissimo_F#3_RR6.opus
volume=+3.90
</region>

<region>
end=33425
hivel=127
key=G3
lovel=0
offset=11537
sample=Taylor_Acc_Picked_staccatissimo_G3_RR6.opus
volume=+4.99
</region>

<region>
end=35222
hivel=127
key=G#3
lovel=0
offset=11843
sample=Taylor_Acc_Picked_staccatissimo_G#3_RR6.opus
volume=+7.88
</region>

<region>
end=35753
hivel=127
key=A3
lovel=0
offset=13251
sample=Taylor_Acc_Picked_staccatissimo_A3_RR6.opus
volume=+4.60
</region>

<region>
end=34301
hivel=127
key=A#3
lovel=0
offset=13397
sample=Taylor_Acc_Picked_staccatissimo_A#3_RR6.opus
volume=+8.11
</region>

<region>
hivel=127
key=B3
lovel=0
offset=12880
sample=Taylor_Acc_Picked_staccatissimo_B3_RR6.opus
volume=+6.33
</region>

<region>
end=36230
hikey=C4
hivel=127
lokey=C4
lovel=0
offset=13020
sample=Taylor_Acc_Picked_staccatissimo_C4_RR6.opus
volume=+7.91
</region>

<region>
end=35994
hivel=127
key=C#4
lovel=0
offset=13258
sample=Taylor_Acc_Picked_staccatissimo_C#4_RR6.opus
volume=+10.91
</region>

<region>
end=36358
hivel=127
key=D4
lovel=0
offset=14464
sample=Taylor_Acc_Picked_staccatissimo_D4_RR6.opus
volume=+13.40
</region>

<region>
end=34372
hivel=127
key=D#4
lovel=0
offset=13880
sample=Taylor_Acc_Picked_staccatissimo_D#4_RR6.opus
volume=+10.48
</region>

<region>
end=36617
hivel=127
key=E4
lovel=0
offset=13711
sample=Taylor_Acc_Picked_staccatissimo_E4_RR6.opus
volume=+6.30
</region>

<region>
hivel=127
key=F4
lovel=0
offset=13223
sample=Taylor_Acc_Picked_staccatissimo_F4_RR6.opus
volume=+9.04
</region>

<region>
end=33695
hivel=127
key=F#4
lovel=0
offset=12586
sample=Taylor_Acc_Picked_staccatissimo_F#4_RR6.opus
volume=+4.78
</region>

<region>
end=30200
hivel=127
key=G4
lovel=0
offset=10912
sample=Taylor_Acc_Picked_staccatissimo_G4_RR6.opus
volume=+1.87
</region>

<region>
hivel=127
key=G#4
lovel=0
offset=15002
sample=Taylor_Acc_Picked_staccatissimo_G#4_RR6.opus
volume=+4.77
</region>

<region>
end=32545
hivel=127
key=A4
lovel=0
offset=11455
sample=Taylor_Acc_Picked_staccatissimo_A4_RR6.opus
volume=+8.08
</region>

<region>
end=31743
hivel=127
key=A#4
lovel=0
offset=11015
sample=Taylor_Acc_Picked_staccatissimo_A#4_RR6.opus
volume=+7.52
</region>

<region>
end=33211
hivel=127
key=B4
lovel=0
offset=12064
sample=Taylor_Acc_Picked_staccatissimo_B4_RR6.opus
volume=+10.38
</region>

<region>
end=32875
hivel=127
key=C5
lovel=0
offset=11913
sample=Taylor_Acc_Picked_staccatissimo_C5_RR6.opus
volume=+6.63
</region>

<region>
end=33233
hivel=127
key=C#5
lovel=0
offset=11909
sample=Taylor_Acc_Picked_staccatissimo_C#5_RR6.opus
volume=+7.53
</region>

<region>
end=18310
hivel=127
key=D5
lovel=0
offset=-355
sample=Taylor_Acc_Picked_staccatissimo_D5_RR6.opus
volume=+4.66
</region>

<region>
end=33250
hivel=127
key=D#5
lovel=0
offset=11456
sample=Taylor_Acc_Picked_staccatissimo_D#5_RR6.opus
volume=+4.86
</region>

<region>
end=31495
hivel=127
key=E5
lovel=0
offset=11261
sample=Taylor_Acc_Picked_staccatissimo_E5_RR6.opus
volume=+4.53
</region>

<region>
end=32306
hivel=127
key=F5
lovel=0
offset=11507
sample=Taylor_Acc_Picked_staccatissimo_F5_RR6.opus
volume=+1.91
</region>

<region>
end=19845
hivel=127
key=F#5
lovel=0
offset=-15
sample=Taylor_Acc_Picked_staccatissimo_F#5_RR6.opus
volume=+2.49
</region>

<region>
end=29513
hivel=127
key=G5
lovel=0
offset=11311
sample=Taylor_Acc_Picked_staccatissimo_G5_RR6.opus
volume=+2.22
</region>

<region>
end=33341
hivel=127
key=G#5
lovel=0
offset=10984
sample=Taylor_Acc_Picked_staccatissimo_G#5_RR6.opus
volume=+7.11
</region>

<region>
end=33682
hikey=C6
hivel=127
lokey=A5
lovel=0
offset=11415
pitch_keycenter=A5
sample=Taylor_Acc_Picked_staccatissimo_A5_RR6.opus
volume=+7.92
</region>
</group>

<group>
group_label=RR7
seq_length=8
seq_position=7

<region>
end=32472
hikey=D2
hivel=127
lokey=C2
lovel=0
offset=10433
pitch_keycenter=D2
sample=Taylor_Acc_Picked_staccatissimo_D2_RR7.opus
volume=+8.27
</region>

<region>
end=35128
hivel=127
key=D#2
lovel=0
offset=12513
sample=Taylor_Acc_Picked_staccatissimo_D#2_RR7.opus
volume=+7.84
</region>

<region>
end=34352
hivel=127
key=E2
lovel=0
offset=12364
sample=Taylor_Acc_Picked_staccatissimo_E2_RR7.opus
volume=+4.83
</region>

<region>
end=34217
hivel=127
key=F2
lovel=0
offset=11451
sample=Taylor_Acc_Picked_staccatissimo_F2_RR7.opus
volume=+5.22
</region>

<region>
end=35638
hivel=127
key=F#2
lovel=0
offset=13867
sample=Taylor_Acc_Picked_staccatissimo_F#2_RR7.opus
volume=+6.57
</region>

<region>
end=34572
hivel=127
key=G2
lovel=0
offset=12339
sample=Taylor_Acc_Picked_staccatissimo_G2_RR7.opus
volume=+7.62
</region>

<region>
end=28286
hivel=127
key=G#2
lovel=0
offset=7939
sample=Taylor_Acc_Picked_staccatissimo_G#2_RR7.opus
volume=+5.19
</region>

<region>
end=31472
hivel=127
key=A2
lovel=0
offset=11119
sample=Taylor_Acc_Picked_staccatissimo_A2_RR7.opus
volume=+5.82
</region>

<region>
hivel=127
key=A#2
lovel=0
offset=13948
sample=Taylor_Acc_Picked_staccatissimo_A#2_RR7.opus
volume=+8.79
</region>

<region>
end=31748
hivel=127
key=B2
lovel=0
offset=12059
sample=Taylor_Acc_Picked_staccatissimo_B2_RR7.opus
volume=+9.51
</region>

<region>
end=31900
hivel=127
key=C3
lovel=0
offset=10729
sample=Taylor_Acc_Picked_staccatissimo_C3_RR7.opus
volume=+9.86
</region>

<region>
end=35215
hivel=127
key=C#3
lovel=0
offset=13876
sample=Taylor_Acc_Picked_staccatissimo_C#3_RR7.opus
volume=+8.30
</region>

<region>
end=30917
hivel=127
key=D3
lovel=0
offset=11578
sample=Taylor_Acc_Picked_staccatissimo_D3_RR7.opus
volume=+5.60
</region>

<region>
end=33802
hivel=127
key=D#3
lovel=0
offset=14266
sample=Taylor_Acc_Picked_staccatissimo_D#3_RR7.opus
volume=+5.91
</region>

<region>
hivel=127
key=E3
lovel=0
offset=15945
sample=Taylor_Acc_Picked_staccatissimo_E3_RR7.opus
volume=+4.54
</region>

<region>
end=30815
hivel=127
key=F3
lovel=0
offset=11405
sample=Taylor_Acc_Picked_staccatissimo_F3_RR7.opus
volume=+5.21
</region>

<region>
end=33309
hivel=127
key=F#3
lovel=0
offset=12613
sample=Taylor_Acc_Picked_staccatissimo_F#3_RR7.opus
volume=+3.66
</region>

<region>
end=31354
hivel=127
key=G3
lovel=0
offset=10999
sample=Taylor_Acc_Picked_staccatissimo_G3_RR7.opus
volume=+4.34
</region>

<region>
end=32804
hivel=127
key=G#3
lovel=0
offset=12222
sample=Taylor_Acc_Picked_staccatissimo_G#3_RR7.opus
volume=+6.36
</region>

<region>
hivel=127
key=A3
lovel=0
offset=13475
sample=Taylor_Acc_Picked_staccatissimo_A3_RR7.opus
volume=+5.96
</region>

<region>
end=33556
hivel=127
key=A#3
lovel=0
offset=13396
sample=Taylor_Acc_Picked_staccatissimo_A#3_RR7.opus
volume=+9.08
</region>

<region>
end=32855
hivel=127
key=B3
lovel=0
offset=13525
sample=Taylor_Acc_Picked_staccatissimo_B3_RR7.opus
volume=+7.05
</region>

<region>
end=34886
hikey=C4
hivel=127
lokey=C4
lovel=0
offset=13688
sample=Taylor_Acc_Picked_staccatissimo_C4_RR7.opus
volume=+8.11
</region>

<region>
end=33526
hivel=127
key=C#4
lovel=0
offset=12835
sample=Taylor_Acc_Picked_staccatissimo_C#4_RR7.opus
volume=+9.51
</region>

<region>
end=34197
hivel=127
key=D4
lovel=0
offset=14200
sample=Taylor_Acc_Picked_staccatissimo_D4_RR7.opus
volume=+10.42
</region>

<region>
end=32754
hivel=127
key=D#4
lovel=0
offset=13568
sample=Taylor_Acc_Picked_staccatissimo_D#4_RR7.opus
volume=+10.35
</region>

<region>
end=33276
hivel=127
key=E4
lovel=0
offset=13955
sample=Taylor_Acc_Picked_staccatissimo_E4_RR7.opus
volume=+6.17
</region>

<region>
hivel=127
key=F4
lovel=0
offset=14323
sample=Taylor_Acc_Picked_staccatissimo_F4_RR7.opus
volume=+8.16
</region>

<region>
end=32360
hivel=127
key=F#4
lovel=0
offset=12528
sample=Taylor_Acc_Picked_staccatissimo_F#4_RR7.opus
volume=+5.17
</region>

<region>
end=30898
hivel=127
key=G4
lovel=0
offset=10574
sample=Taylor_Acc_Picked_staccatissimo_G4_RR7.opus
volume=+1.28
</region>

<region>
hivel=127
key=G#4
lovel=0
offset=14992
sample=Taylor_Acc_Picked_staccatissimo_G#4_RR7.opus
volume=+6.05
</region>

<region>
end=29922
hivel=127
key=A4
lovel=0
offset=11229
sample=Taylor_Acc_Picked_staccatissimo_A4_RR7.opus
volume=+8.62
</region>

<region>
end=31321
hivel=127
key=A#4
lovel=0
offset=11006
sample=Taylor_Acc_Picked_staccatissimo_A#4_RR7.opus
volume=+7.87
</region>

<region>
end=31171
hivel=127
key=B4
lovel=0
offset=11764
sample=Taylor_Acc_Picked_staccatissimo_B4_RR7.opus
volume=+8.47
</region>

<region>
end=32696
hivel=127
key=C5
lovel=0
offset=11491
sample=Taylor_Acc_Picked_staccatissimo_C5_RR7.opus
volume=+6.27
</region>

<region>
end=31219
hivel=127
key=C#5
lovel=0
offset=11567
sample=Taylor_Acc_Picked_staccatissimo_C#5_RR7.opus
volume=+6.07
</region>

<region>
end=18790
hivel=127
key=D5
lovel=0
offset=-313
sample=Taylor_Acc_Picked_staccatissimo_D5_RR7.opus
volume=+4.60
</region>

<region>
end=31989
hivel=127
key=D#5
lovel=0
offset=11288
sample=Taylor_Acc_Picked_staccatissimo_D#5_RR7.opus
volume=+4.23
</region>

<region>
end=31996
hivel=127
key=E5
lovel=0
offset=10431
sample=Taylor_Acc_Picked_staccatissimo_E5_RR7.opus
volume=+3.62
</region>

<region>
end=31694
hivel=127
key=F5
lovel=0
offset=11505
sample=Taylor_Acc_Picked_staccatissimo_F5_RR7.opus
volume=+2.12
</region>

<region>
end=18727
hivel=127
key=F#5
lovel=0
offset=-306
sample=Taylor_Acc_Picked_staccatissimo_F#5_RR7.opus
volume=+2.77
</region>

<region>
end=30216
hivel=127
key=G5
lovel=0
offset=11084
sample=Taylor_Acc_Picked_staccatissimo_G5_RR7.opus
volume=+2.49
</region>

<region>
end=32150
hivel=127
key=G#5
lovel=0
offset=11021
sample=Taylor_Acc_Picked_staccatissimo_G#5_RR7.opus
volume=+5.38
</region>

<region>
end=33309
hikey=C6
hivel=127
lokey=A5
lovel=0
offset=11711
pitch_keycenter=A5
sample=Taylor_Acc_Picked_staccatissimo_A5_RR7.opus
volume=+5.69
</region>
</group>

<group>
group_label=RR8
seq_length=8
seq_position=8

<region>
hikey=D2
hivel=127
lokey=C2
lovel=0
offset=9343
pitch_keycenter=D2
sample=Taylor_Acc_Picked_staccatissimo_D2_RR8.opus
volume=+8.68
</region>

<region>
hivel=127
key=D#2
lovel=0
offset=12056
sample=Taylor_Acc_Picked_staccatissimo_D#2_RR8.opus
volume=+6.22
</region>

<region>
hivel=127
key=E2
lovel=0
offset=11297
sample=Taylor_Acc_Picked_staccatissimo_E2_RR8.opus
volume=+3.68
</region>

<region>
hivel=127
key=F2
lovel=0
offset=10651
sample=Taylor_Acc_Picked_staccatissimo_F2_RR8.opus
volume=+4.83
</region>

<region>
hivel=127
key=F#2
lovel=0
offset=13834
sample=Taylor_Acc_Picked_staccatissimo_F#2_RR8.opus
volume=+7.34
</region>

<region>
hivel=127
key=G2
lovel=0
offset=12341
sample=Taylor_Acc_Picked_staccatissimo_G2_RR8.opus
volume=+8.20
</region>

<region>
hivel=127
key=G#2
lovel=0
offset=556
sample=Taylor_Acc_Picked_staccatissimo_G#2_RR8.opus
volume=+6.37
</region>

<region>
hivel=127
key=A2
lovel=0
offset=10493
sample=Taylor_Acc_Picked_staccatissimo_A2_RR8.opus
volume=+5.52
</region>

<region>
hivel=127
key=A#2
lovel=0
offset=14329
sample=Taylor_Acc_Picked_staccatissimo_A#2_RR8.opus
volume=+6.69
</region>

<region>
hivel=127
key=B2
lovel=0
offset=11695
sample=Taylor_Acc_Picked_staccatissimo_B2_RR8.opus
volume=+8.68
</region>

<region>
hivel=127
key=C3
lovel=0
offset=10525
sample=Taylor_Acc_Picked_staccatissimo_C3_RR8.opus
volume=+10.26
</region>

<region>
hivel=127
key=C#3
lovel=0
offset=13653
sample=Taylor_Acc_Picked_staccatissimo_C#3_RR8.opus
volume=+8.21
</region>

<region>
hivel=127
key=D3
lovel=0
offset=11481
sample=Taylor_Acc_Picked_staccatissimo_D3_RR8.opus
volume=+5.60
</region>

<region>
hivel=127
key=D#3
lovel=0
offset=13309
sample=Taylor_Acc_Picked_staccatissimo_D#3_RR8.opus
volume=+6.63
</region>

<region>
hivel=127
key=E3
lovel=0
offset=15209
sample=Taylor_Acc_Picked_staccatissimo_E3_RR8.opus
volume=+5.12
</region>

<region>
hivel=127
key=F3
lovel=0
offset=10495
sample=Taylor_Acc_Picked_staccatissimo_F3_RR8.opus
volume=+5.99
</region>

<region>
hivel=127
key=F#3
lovel=0
offset=12617
sample=Taylor_Acc_Picked_staccatissimo_F#3_RR8.opus
volume=+3.02
</region>

<region>
hivel=127
key=G3
lovel=0
offset=11528
sample=Taylor_Acc_Picked_staccatissimo_G3_RR8.opus
volume=+4.81
</region>

<region>
hivel=127
key=G#3
lovel=0
offset=11665
sample=Taylor_Acc_Picked_staccatissimo_G#3_RR8.opus
volume=+9.01
</region>

<region>
hivel=127
key=A3
lovel=0
offset=14098
sample=Taylor_Acc_Picked_staccatissimo_A3_RR8.opus
volume=+4.93
</region>

<region>
hivel=127
key=A#3
lovel=0
offset=12540
sample=Taylor_Acc_Picked_staccatissimo_A#3_RR8.opus
volume=+9.77
</region>

<region>
hivel=127
key=B3
lovel=0
offset=13122
sample=Taylor_Acc_Picked_staccatissimo_B3_RR8.opus
volume=+6.71
</region>

<region>
hikey=C4
hivel=127
lokey=C4
lovel=0
offset=13937
sample=Taylor_Acc_Picked_staccatissimo_C4_RR8.opus
volume=+7.29
</region>

<region>
hivel=127
key=C#4
lovel=0
offset=12754
sample=Taylor_Acc_Picked_staccatissimo_C#4_RR8.opus
volume=+9.82
</region>

<region>
hivel=127
key=D4
lovel=0
offset=13456
sample=Taylor_Acc_Picked_staccatissimo_D4_RR8.opus
volume=+9.73
</region>

<region>
hivel=127
key=D#4
lovel=0
offset=12870
sample=Taylor_Acc_Picked_staccatissimo_D#4_RR8.opus
volume=+8.56
</region>

<region>
hivel=127
key=E4
lovel=0
offset=13921
sample=Taylor_Acc_Picked_staccatissimo_E4_RR8.opus
volume=+5.81
</region>

<region>
hivel=127
key=F4
lovel=0
offset=14461
sample=Taylor_Acc_Picked_staccatissimo_F4_RR8.opus
volume=+8.48
</region>

<region>
hivel=127
key=F#4
lovel=0
offset=12284
sample=Taylor_Acc_Picked_staccatissimo_F#4_RR8.opus
volume=+7.04
</region>

<region>
hivel=127
key=G4
lovel=0
offset=9857
sample=Taylor_Acc_Picked_staccatissimo_G4_RR8.opus
volume=+2.81
</region>

<region>
hivel=127
key=G#4
lovel=0
offset=15015
sample=Taylor_Acc_Picked_staccatissimo_G#4_RR8.opus
volume=+4.14
</region>

<region>
hivel=127
key=A4
lovel=0
offset=11277
sample=Taylor_Acc_Picked_staccatissimo_A4_RR8.opus
volume=+8.56
</region>

<region>
end=26138
hivel=127
key=A#4
lovel=0
offset=9759
sample=Taylor_Acc_Picked_staccatissimo_A#4_RR8.opus
volume=+7.91
</region>

<region>
hivel=127
key=B4
lovel=0
offset=11698
sample=Taylor_Acc_Picked_staccatissimo_B4_RR8.opus
volume=+10.86
</region>

<region>
hivel=127
key=C5
lovel=0
offset=11366
sample=Taylor_Acc_Picked_staccatissimo_C5_RR8.opus
volume=+5.54
</region>

<region>
end=29741
hivel=127
key=C#5
lovel=0
offset=11025
sample=Taylor_Acc_Picked_staccatissimo_C#5_RR8.opus
volume=+5.94
</region>

<region>
end=20045
hivel=127
key=D5
lovel=0
offset=1119
sample=Taylor_Acc_Picked_staccatissimo_D5_RR8.opus
volume=+4.89
</region>

<region>
hivel=127
key=D#5
lovel=0
offset=10859
sample=Taylor_Acc_Picked_staccatissimo_D#5_RR8.opus
volume=+2.87
</region>

<region>
hivel=127
key=E5
lovel=0
offset=10310
sample=Taylor_Acc_Picked_staccatissimo_E5_RR8.opus
volume=+3.69
</region>

<region>
hivel=127
key=F5
lovel=0
offset=11603
sample=Taylor_Acc_Picked_staccatissimo_F5_RR8.opus
volume=+0.98
</region>

<region>
end=18080
hivel=127
key=F#5
lovel=0
offset=1131
sample=Taylor_Acc_Picked_staccatissimo_F#5_RR8.opus
volume=+2.86
</region>

<region>
hivel=127
key=G5
lovel=0
offset=10543
sample=Taylor_Acc_Picked_staccatissimo_G5_RR8.opus
volume=+2.76
</region>

<region>
end=28782
hivel=127
key=G#5
lovel=0
offset=9956
sample=Taylor_Acc_Picked_staccatissimo_G#5_RR8.opus
volume=+5.59
</region>

<region>
hikey=C6
hivel=127
lokey=A5
lovel=0
offset=10948
pitch_keycenter=A5
sample=Taylor_Acc_Picked_staccatissimo_A5_RR8.opus
volume=+5.74
</region>
</group>